<svg width="24" height="24" viewBox="0 0 24 24" fill="none" xmlns="http://www.w3.org/2000/svg">
<path d="M23.6027 11.3195C23.597 11.2463 23.5914 11.1732 23.5914 11.1001V11.0945L23.5745 10.8751V10.8695C23.5151 10.2179 23.4003 9.57261 23.2314 8.94055C23.2314 8.93492 23.2314 8.93492 23.2258 8.9293L23.1752 8.7418C23.1695 8.73055 23.1695 8.7193 23.1639 8.71367C23.147 8.65742 23.1302 8.59555 23.1133 8.5393C23.1077 8.52805 23.1077 8.51117 23.102 8.49992C23.0852 8.44367 23.0683 8.38742 23.0514 8.3368C23.0458 8.31992 23.0402 8.30867 23.0345 8.28992C23.0177 8.23367 23.0008 8.18305 22.9783 8.1268L22.9614 8.07617C22.9445 8.02555 22.922 7.9693 22.9052 7.91867C22.9005 7.9027 22.8949 7.88704 22.8883 7.8718C22.8658 7.82117 22.8489 7.76492 22.8264 7.7143C22.8208 7.70305 22.8152 7.68617 22.8095 7.67492C22.787 7.61867 22.7627 7.56805 22.742 7.5118C22.742 7.50617 22.7364 7.50055 22.7364 7.49492C22.6633 7.31492 22.5845 7.13492 22.502 6.96055L22.4852 6.9268C22.4627 6.87992 22.4458 6.84242 22.4233 6.80305C22.412 6.78055 22.4008 6.75242 22.3895 6.72992C22.3727 6.69055 22.3502 6.6568 22.3333 6.61742C22.3164 6.5893 22.3052 6.56117 22.2864 6.53305C22.2677 6.50492 22.247 6.46555 22.2302 6.42617C22.2133 6.39805 22.1964 6.3643 22.1795 6.33617C22.1627 6.30805 22.1402 6.26867 22.1233 6.23492C22.1066 6.20249 22.0878 6.17118 22.067 6.14117C22.0502 6.10742 22.0277 6.0793 22.0108 6.04742C21.9939 6.01555 21.9714 5.98555 21.9545 5.95367C21.9377 5.9218 21.9152 5.8918 21.8983 5.86367C21.8814 5.83555 21.8589 5.79617 21.8364 5.76242C21.8196 5.73303 21.8008 5.70484 21.7802 5.67805L21.7127 5.5782C21.6959 5.54881 21.6771 5.52062 21.6564 5.49383C21.6339 5.46008 21.6058 5.4207 21.5833 5.38695C21.5664 5.36445 21.5495 5.33633 21.5327 5.31383L21.4483 5.1957C21.4314 5.1732 21.4202 5.15633 21.4014 5.13383C21.3545 5.07195 21.317 5.0157 21.272 4.95945C20.9349 4.51747 20.5666 4.10015 20.17 3.7107C19.9018 3.43109 19.6154 3.16958 19.3127 2.92789C19.1252 2.76477 18.9302 2.61289 18.7277 2.46664C18.3651 2.19664 17.9792 1.95945 17.5745 1.75789C17.462 1.69602 17.3495 1.63977 17.237 1.58352C16.4093 1.17837 15.5374 0.870684 14.6388 0.666641C14.5487 0.649766 14.4587 0.627266 14.3744 0.610391H14.3687C14.3219 0.604766 14.2844 0.593516 14.2394 0.587891C13.6517 0.47742 13.056 0.414715 12.4581 0.400391H11.9598C11.2433 0.408873 10.5293 0.487371 9.82797 0.634766C8.25344 0.966641 6.86406 1.63039 5.94156 2.46289C5.89094 2.50977 5.85156 2.54164 5.82906 2.56414L5.80656 2.58664H5.81266L5.80703 2.59227L5.81266 2.58664C5.81415 2.58664 5.81558 2.58605 5.81663 2.58499C5.81769 2.58394 5.81828 2.58251 5.81828 2.58102L5.81266 2.58664C5.81569 2.58359 5.81964 2.58161 5.82391 2.58102C6.51016 2.17039 7.46078 1.83102 8.14141 1.66414L8.41703 1.59664C8.4339 1.59102 8.4564 1.59102 8.47328 1.58539C8.55203 1.56852 8.63078 1.55164 8.71515 1.53477C8.72641 1.53477 8.74328 1.52914 8.75453 1.52914C11.763 0.98164 14.9692 1.88164 17.2033 4.01305C17.6852 4.47086 18.1084 4.98667 18.4633 5.54867C19.8864 7.85492 19.7514 10.757 18.6433 12.467C17.0289 14.9513 13.4237 15.8077 11.1902 13.6313C10.4406 12.9043 10.0098 11.9098 9.99203 10.8657C9.98376 10.3659 10.0835 9.87024 10.2845 9.41258C10.3633 9.23258 10.8977 8.2093 11.1395 8.25992C10.5264 8.13055 9.37937 8.38367 8.575 9.58133C7.855 10.6557 7.89437 12.3095 8.34062 13.4851C8.05705 12.9051 7.86539 12.2846 7.7725 11.6457C7.19875 7.77617 9.80266 4.47383 12.1933 3.65305C10.9052 2.52805 7.67125 2.60727 5.26937 4.37305C3.86875 5.4043 2.86797 6.86492 2.33922 8.60867C2.41797 7.62992 2.78922 6.16742 3.54859 4.6768C2.74422 5.09305 1.72047 6.41117 1.21422 7.6243C0.482968 9.37883 0.229843 11.477 0.460468 13.4738C0.477343 13.6257 0.494218 13.772 0.511093 13.9238C1.44484 19.4134 6.22984 23.5979 11.9852 23.5979C18.4112 23.5979 23.6252 18.384 23.6252 11.9532C23.6195 11.7413 23.6139 11.5276 23.6027 11.3195Z" fill="white"/>
</svg>
